<svg width="252" height="44" viewBox="0 0 252 44" fill="none" xmlns="http://www.w3.org/2000/svg">
<path d="M56.404 30V14.7885H61.2325V16.9977C61.5692 16.2192 62.1162 15.588 62.8736 15.1041C63.6521 14.6202 64.5567 14.3783 65.5877 14.3783C67.9862 14.3783 69.5746 15.3145 70.3531 17.187C70.7739 16.3454 71.4156 15.6722 72.2782 15.1672C73.1408 14.6413 74.1191 14.3783 75.2132 14.3783C78.8109 14.3783 80.6098 16.4401 80.6098 20.5638V30H75.7497V21.4475C75.7497 19.4488 74.9923 18.4494 73.4774 18.4494C71.7733 18.4494 70.9212 19.6907 70.9212 22.1734V30H66.0611V21.4159C66.0611 19.4382 65.3142 18.4494 63.8204 18.4494C62.9788 18.4494 62.3371 18.7334 61.8953 19.3015C61.4534 19.8485 61.2325 20.8058 61.2325 22.1734V30H56.404ZM87.1013 12.5794C86.5333 13.1475 85.8179 13.4315 84.9553 13.4315C84.0927 13.4315 83.3774 13.1475 82.8093 12.5794C82.2623 12.0113 81.9888 11.317 81.9888 10.4965C81.9888 9.65493 82.2623 8.95011 82.8093 8.38204C83.3774 7.81398 84.0927 7.52995 84.9553 7.52995C85.8179 7.52995 86.5333 7.8245 87.1013 8.4136C87.6694 8.98167 87.9534 9.67597 87.9534 10.4965C87.9534 11.317 87.6694 12.0113 87.1013 12.5794ZM82.5253 30V14.7885H87.3538V30H82.5253ZM89.4461 30V14.7885H94.2746V16.9977C95.1793 15.2514 96.8204 14.3783 99.1978 14.3783C102.901 14.3783 104.752 16.4506 104.752 20.5954V30H99.8921V22.1734C99.8921 20.8689 99.6817 19.9221 99.2609 19.333C98.8612 18.7439 98.1774 18.4494 97.2096 18.4494C95.2529 18.4494 94.2746 19.6486 94.2746 22.0471V30H89.4461ZM116.474 14.3783C120.177 14.3783 122.028 16.4506 122.028 20.5954V30H117.168V22.1734C117.168 20.8689 116.958 19.9221 116.537 19.333C116.137 18.7439 115.454 18.4494 114.486 18.4494C112.529 18.4494 111.551 19.6486 111.551 22.0471V30H106.722V7.90866H111.551V16.9977C112.455 15.2514 114.096 14.3783 116.474 14.3783ZM130.058 30.4103C127.849 30.4103 126.102 29.6634 124.819 28.1696C123.535 26.6758 122.894 24.7507 122.894 22.3943C122.894 20.0799 123.556 18.1654 124.882 16.6505C126.207 15.1357 127.954 14.3783 130.121 14.3783C131.194 14.3783 132.151 14.6097 132.993 15.0726C133.834 15.5354 134.465 16.1666 134.886 16.9661V14.7885H139.683V30H134.886V27.854C134.465 28.6114 133.813 29.2321 132.93 29.716C132.067 30.1788 131.11 30.4103 130.058 30.4103ZM131.446 26.4023C132.603 26.4023 133.498 26.0236 134.129 25.2661C134.76 24.5087 135.076 23.5514 135.076 22.3943C135.076 21.2581 134.76 20.3114 134.129 19.554C133.498 18.7965 132.603 18.4178 131.446 18.4178C130.352 18.4178 129.469 18.786 128.795 19.5224C128.143 20.2588 127.817 21.2161 127.817 22.3943C127.817 23.5725 128.143 24.5403 128.795 25.2977C129.469 26.0341 130.352 26.4023 131.446 26.4023ZM155.796 30.4103C153.586 30.4103 151.84 29.6634 150.557 28.1696C149.273 26.6758 148.632 24.7507 148.632 22.3943C148.632 20.0799 149.294 18.1654 150.62 16.6505C151.945 15.1357 153.692 14.3783 155.859 14.3783C156.932 14.3783 157.889 14.6097 158.731 15.0726C159.572 15.5354 160.203 16.1666 160.624 16.9661V14.7885H165.421V30H160.624V27.854C160.203 28.6114 159.551 29.2321 158.667 29.716C157.805 30.1788 156.848 30.4103 155.796 30.4103ZM157.184 26.4023C158.341 26.4023 159.235 26.0236 159.867 25.2661C160.498 24.5087 160.813 23.5514 160.813 22.3943C160.813 21.2581 160.498 20.3114 159.867 19.554C159.235 18.7965 158.341 18.4178 157.184 18.4178C156.09 18.4178 155.206 18.786 154.533 19.5224C153.881 20.2588 153.555 21.2161 153.555 22.3943C153.555 23.5725 153.881 24.5403 154.533 25.2977C155.206 26.0341 156.09 26.4023 157.184 26.4023ZM178.424 14.7885H183.253V28.9586C183.253 31.9041 182.274 34.0606 180.318 35.4282C179.034 36.3329 177.225 36.7852 174.89 36.7852C172.596 36.7852 170.766 36.3749 169.398 35.5544C168.62 35.0705 167.978 34.4498 167.473 33.6924C166.968 32.935 166.705 32.146 166.684 31.3255H171.607C171.839 32.6089 172.912 33.2506 174.826 33.2506C177.225 33.2506 178.424 32.0198 178.424 29.5582V27.5384C178.045 28.2748 177.404 28.8744 176.499 29.3373C175.615 29.7791 174.669 30 173.659 30C171.45 30 169.693 29.2847 168.388 27.854C167.084 26.4023 166.432 24.5298 166.432 22.2365C166.432 19.9642 167.105 18.0917 168.451 16.619C169.798 15.1252 171.555 14.3783 173.722 14.3783C174.774 14.3783 175.721 14.6202 176.562 15.1041C177.425 15.567 178.045 16.1877 178.424 16.9661V14.7885ZM174.984 26.276C176.099 26.276 176.983 25.8973 177.635 25.1399C178.308 24.3825 178.645 23.4357 178.645 22.2996C178.645 21.1635 178.308 20.2167 177.635 19.4593C176.983 18.7019 176.099 18.3231 174.984 18.3231C173.911 18.3231 173.038 18.7019 172.365 19.4593C171.713 20.1957 171.386 21.1424 171.386 22.2996C171.386 23.4568 171.713 24.414 172.365 25.1715C173.038 25.9078 173.911 26.276 174.984 26.276ZM200.295 21.6053C200.295 22.2365 200.253 22.9413 200.169 23.7197H188.934C188.976 24.7086 189.313 25.4765 189.944 26.0236C190.575 26.5706 191.427 26.8441 192.5 26.8441C193.973 26.8441 194.92 26.3707 195.341 25.4239H200.074C199.843 26.9177 199.022 28.138 197.613 29.0848C196.224 30.0105 194.52 30.4734 192.5 30.4734C189.912 30.4734 187.872 29.758 186.378 28.3274C184.884 26.8967 184.137 24.919 184.137 22.3943C184.137 19.9116 184.884 17.955 186.378 16.5243C187.872 15.0726 189.86 14.3467 192.342 14.3467C194.699 14.3467 196.613 15.02 198.086 16.3665C199.559 17.713 200.295 19.4593 200.295 21.6053ZM188.934 20.7216H195.53C195.509 19.7117 195.225 18.9333 194.678 18.3863C194.131 17.8392 193.342 17.5657 192.311 17.5657C191.28 17.5657 190.459 17.8603 189.849 18.4494C189.26 19.0174 188.955 19.7749 188.934 20.7216ZM201.164 30V14.7885H205.992V16.9977C206.897 15.2514 208.538 14.3783 210.916 14.3783C214.619 14.3783 216.47 16.4506 216.47 20.5954V30H211.61V22.1734C211.61 20.8689 211.4 19.9221 210.979 19.333C210.579 18.7439 209.895 18.4494 208.927 18.4494C206.971 18.4494 205.992 19.6486 205.992 22.0471V30H201.164ZM229.296 7.90866H234.125V30H229.328V27.854C228.907 28.6114 228.255 29.2321 227.371 29.716C226.509 30.1788 225.551 30.4103 224.499 30.4103C222.29 30.4103 220.544 29.6634 219.261 28.1696C217.977 26.6758 217.335 24.7507 217.335 22.3943C217.335 20.0799 217.998 18.1654 219.324 16.6505C220.649 15.1357 222.395 14.3783 224.562 14.3783C225.635 14.3783 226.593 14.6097 227.434 15.0726C228.276 15.5354 228.907 16.1666 229.328 16.9661V15.6722H229.296V7.90866ZM225.888 26.4023C227.045 26.4023 227.939 26.0236 228.57 25.2661C229.202 24.5087 229.517 23.5514 229.517 22.3943C229.517 21.2581 229.202 20.3114 228.57 19.554C227.939 18.7965 227.045 18.4178 225.888 18.4178C224.794 18.4178 223.91 18.786 223.237 19.5224C222.585 20.2588 222.259 21.2161 222.259 22.3943C222.259 23.5725 222.585 24.5403 223.237 25.2977C223.91 26.0341 224.794 26.4023 225.888 26.4023ZM242.299 30.4103C240.09 30.4103 238.344 29.6634 237.061 28.1696C235.777 26.6758 235.136 24.7507 235.136 22.3943C235.136 20.0799 235.798 18.1654 237.124 16.6505C238.449 15.1357 240.195 14.3783 242.363 14.3783C243.436 14.3783 244.393 14.6097 245.234 15.0726C246.076 15.5354 246.707 16.1666 247.128 16.9661V14.7885H251.925V30H247.128V27.854C246.707 28.6114 246.055 29.2321 245.171 29.716C244.309 30.1788 243.351 30.4103 242.299 30.4103ZM243.688 26.4023C244.845 26.4023 245.739 26.0236 246.371 25.2661C247.002 24.5087 247.317 23.5514 247.317 22.3943C247.317 21.2581 247.002 20.3114 246.371 19.554C245.739 18.7965 244.845 18.4178 243.688 18.4178C242.594 18.4178 241.71 18.786 241.037 19.5224C240.385 20.2588 240.059 21.2161 240.059 22.3943C240.059 23.5725 240.385 24.5403 241.037 25.2977C241.71 26.0341 242.594 26.4023 243.688 26.4023Z" fill="#0D114F"/>
<path d="M146.942 29.4004C146.353 30.0105 145.617 30.3156 144.733 30.3156C143.85 30.3156 143.103 30.0105 142.493 29.4004C141.904 28.7902 141.609 28.0644 141.609 27.2228C141.609 26.3602 141.904 25.6343 142.493 25.0452C143.103 24.4351 143.85 24.13 144.733 24.13C145.617 24.13 146.353 24.4351 146.942 25.0452C147.553 25.6343 147.858 26.3602 147.858 27.2228C147.858 28.0644 147.553 28.7902 146.942 29.4004Z" fill="url(#paint0_linear)"/>
<rect width="43.832" height="43.832" rx="7.88976" fill="url(#paint1_linear)"/>
<g filter="url(#filter0_di)">
<path d="M33.258 32.4131H29.3487C29.1852 32.4131 29.0508 32.2854 29.0363 32.1226C29.0317 32.0711 29.0267 32.0211 29.0214 31.9726C28.7973 29.9298 26.5982 28.1753 24.5583 28.4238C23.0692 28.6052 21.8351 29.7293 20.3445 29.8976C19.3393 30.0111 18.4621 29.9594 17.4596 29.7629C16.5809 29.5908 15.7327 29.2757 14.952 28.8372C13.1132 27.8044 12.126 26.741 11.2107 25.1387C10.681 24.2114 10.303 23.1958 10.1655 22.1368C10.0517 21.2603 10.0589 20.4879 10.1544 19.6373C10.3004 18.3379 10.7168 17.0732 11.3964 15.956C12.3504 14.3877 13.3816 13.4126 15.0616 12.4997C15.7731 12.1131 16.5387 11.8305 17.3296 11.6568C19.3324 11.2169 20.629 11.3458 22.5759 11.956C23.6591 12.2955 24.8356 13.023 25.8362 13.9723C28.0243 16.0482 28.1911 19.3058 28.2464 22.3215C28.2516 22.601 27.996 22.8125 27.7209 22.7627C26.3696 22.5184 25.3981 22.4987 24.0703 22.7098C23.7143 22.7664 23.4214 22.398 23.5175 22.0506C23.5591 21.8998 23.5918 21.7518 23.6163 21.6059C24.0088 19.2711 22.4111 16.606 20.0547 16.3763C18.718 16.246 17.3943 16.7918 16.4138 17.8864C15.8286 18.4381 15.5049 19.3034 15.4028 20.2262C15.1383 22.6173 17.0941 24.9295 19.497 25.0439C19.9555 25.0657 20.3982 24.999 20.8505 24.8457C22.2759 24.3625 23.6654 23.6404 25.1662 23.7534C29.6812 24.0934 32.8523 26.1289 33.6866 31.9218C33.724 32.1814 33.5203 32.4131 33.258 32.4131Z" fill="#FAFAFA"/>
</g>
<defs>
<filter id="filter0_di" x="8.44906" y="11.3964" width="26.8744" height="24.2814" filterUnits="userSpaceOnUse" color-interpolation-filters="sRGB">
<feFlood flood-opacity="0" result="BackgroundImageFix"/>
<feColorMatrix in="SourceAlpha" type="matrix" values="0 0 0 0 0 0 0 0 0 0 0 0 0 0 0 0 0 0 127 0" result="hardAlpha"/>
<feOffset dy="1.63237"/>
<feGaussianBlur stdDeviation="0.816183"/>
<feColorMatrix type="matrix" values="0 0 0 0 0 0 0 0 0 0 0 0 0 0 0 0 0 0 0.07 0"/>
<feBlend mode="normal" in2="BackgroundImageFix" result="effect1_dropShadow"/>
<feBlend mode="normal" in="SourceGraphic" in2="effect1_dropShadow" result="shape"/>
<feColorMatrix in="SourceAlpha" type="matrix" values="0 0 0 0 0 0 0 0 0 0 0 0 0 0 0 0 0 0 127 0" result="hardAlpha"/>
<feOffset dy="1.63237"/>
<feGaussianBlur stdDeviation="1.02023"/>
<feComposite in2="hardAlpha" operator="arithmetic" k2="-1" k3="1"/>
<feColorMatrix type="matrix" values="0 0 0 0 0.219608 0 0 0 0 0.533333 0 0 0 0 1 0 0 0 0.13 0"/>
<feBlend mode="normal" in2="shape" result="effect2_innerShadow"/>
</filter>
<linearGradient id="paint0_linear" x1="293.798" y1="-52.4597" x2="288.558" y2="49.3128" gradientUnits="userSpaceOnUse">
<stop stop-color="#5498FF"/>
<stop offset="0.515625" stop-color="#428EFF"/>
<stop offset="1" stop-color="#297FFF"/>
</linearGradient>
<linearGradient id="paint1_linear" x1="52.463" y1="-66.3077" x2="19.6129" y2="48.5381" gradientUnits="userSpaceOnUse">
<stop stop-color="#5498FF"/>
<stop offset="0.515625" stop-color="#428EFF"/>
<stop offset="1" stop-color="#297FFF"/>
</linearGradient>
</defs>
</svg>
